<svg width="24" height="24" viewBox="0 0 24 24" fill="none" xmlns="http://www.w3.org/2000/svg">
<g opacity="0.5">
<path opacity="0.4" fill-rule="evenodd" clip-rule="evenodd" d="M5.91058 20.5885C5.91058 19.7485 6.59058 19.0685 7.43058 19.0685C8.26058 19.0685 8.94058 19.7485 8.94058 20.5885C8.94058 21.4185 8.26058 22.0985 7.43058 22.0985C6.59058 22.0985 5.91058 21.4185 5.91058 20.5885ZM17.1606 20.5885C17.1606 19.7485 17.8406 19.0685 18.6806 19.0685C19.5106 19.0685 20.1906 19.7485 20.1906 20.5885C20.1906 21.4185 19.5106 22.0985 18.6806 22.0985C17.8406 22.0985 17.1606 21.4185 17.1606 20.5885Z" fill="url(#paint0_linear_1_21)"/>
<path fill-rule="evenodd" clip-rule="evenodd" d="M20.1908 6.34903C20.8008 6.34903 21.2008 6.55903 21.6008 7.01903C22.0008 7.47903 22.0708 8.13903 21.9808 8.73803L21.0308 15.298C20.8508 16.559 19.7708 17.488 18.5008 17.488H7.5908C6.2608 17.488 5.1608 16.468 5.0508 15.149L4.1308 4.24803L2.6208 3.98803C2.2208 3.91803 1.9408 3.52803 2.0108 3.12803C2.0808 2.71803 2.4708 2.44803 2.8808 2.50803L5.2658 2.86803C5.6058 2.92903 5.8558 3.20803 5.8858 3.54803L6.0758 5.78803C6.1058 6.10903 6.3658 6.34903 6.6858 6.34903H20.1908ZM14.1308 11.548H16.9008C17.3208 11.548 17.6508 11.208 17.6508 10.798C17.6508 10.378 17.3208 10.048 16.9008 10.048H14.1308C13.7108 10.048 13.3808 10.378 13.3808 10.798C13.3808 11.208 13.7108 11.548 14.1308 11.548Z" fill="url(#paint1_linear_1_21)"/>
</g>
<defs>
<linearGradient id="paint0_linear_1_21" x1="5.91058" y1="18.8825" x2="16.9208" y2="26.922" gradientUnits="userSpaceOnUse">
<stop stop-color="#FF9300"/>
<stop offset="1" stop-color="#FF9300"/>
</linearGradient>
<linearGradient id="paint1_linear_1_21" x1="2.00006" y1="1.57936" x2="24.6895" y2="6.27386" gradientUnits="userSpaceOnUse">
<stop stop-color="#FF9300"/>
<stop offset="1" stop-color="#FF9300"/>
</linearGradient>
</defs>
</svg>
